# xmcd
#
# Track frame offsets: 
#        150
#        18210
#        33574
#        47231
#        63495
#        82686
#        102961
#        113267
#        132953
#        152786
#        169797
#
# Disc length: 2461 seconds
#
# Revision: 1
# Processed by: cddbd v1.5.2PL0 Copyright (c) Steve Scherf et al.
# Submitted via: ExactAudioCopy v0.99pb5
#
DISCID=7e099b0b
DTITLE=Lenny Breau - Swingin' on a Seven-String
DYEAR=1984
DGENRE=Jazz
TTITLE0=Back in Indiana
TTITLE1=You Needed Me
TTITLE2=Bonaparte's Retreat
TTITLE3=I Can't Help It If I'm Still in Love With You
TTITLE4=I Love You Because
TTITLE5=Please Release Me
TTITLE6=Blue Moon Of Kentucky
TTITLE7=She Thinks I Still Care
TTITLE8=I'm So Lonesome I Could Cry
TTITLE9=Anytime
TTITLE10=Blue Eyes Crying In the Rain
EXTD=YEAR: 1984
EXTT0=
EXTT1=
EXTT2=
EXTT3=
EXTT4=
EXTT5=
EXTT6=
EXTT7=
EXTT8=
EXTT9=
EXTT10=
PLAYORDER=
